<svg width="421" height="369" viewBox="0 0 421 369" fill="none" xmlns="http://www.w3.org/2000/svg">
<g filter="url(#filter0_bdddddd_35_959)">
<rect x="89" y="2" width="243" height="168" rx="10" fill="white" fill-opacity="0.8"/>
</g>
<path d="M107.965 34V24.907H104.444V23.92H112.515V24.907H108.994V34H107.965ZM115.673 34.21C114.922 34.21 114.28 34.0397 113.748 33.699C113.216 33.3583 112.808 32.887 112.523 32.285C112.238 31.683 112.096 30.9923 112.096 30.213C112.096 29.4197 112.241 28.7243 112.53 28.127C112.819 27.5297 113.23 27.0653 113.762 26.734C114.299 26.398 114.936 26.23 115.673 26.23C116.429 26.23 117.073 26.4003 117.605 26.741C118.142 27.077 118.55 27.546 118.83 28.148C119.115 28.7453 119.257 29.4337 119.257 30.213C119.257 31.0063 119.115 31.704 118.83 32.306C118.545 32.9033 118.135 33.37 117.598 33.706C117.061 34.042 116.42 34.21 115.673 34.21ZM115.673 33.223C116.513 33.223 117.138 32.9453 117.549 32.39C117.96 31.83 118.165 31.1043 118.165 30.213C118.165 29.2983 117.957 28.5703 117.542 28.029C117.131 27.4877 116.508 27.217 115.673 27.217C115.108 27.217 114.642 27.3453 114.273 27.602C113.909 27.854 113.636 28.2063 113.454 28.659C113.277 29.107 113.188 29.625 113.188 30.213C113.188 31.123 113.398 31.8533 113.818 32.404C114.238 32.95 114.856 33.223 115.673 33.223ZM124.917 34C124.493 34.0887 124.073 34.1237 123.657 34.105C123.247 34.0863 122.878 33.9977 122.551 33.839C122.229 33.6803 121.984 33.433 121.816 33.097C121.681 32.817 121.606 32.5347 121.592 32.25C121.583 31.9607 121.578 31.6317 121.578 31.263V24.34H122.6V31.221C122.6 31.5383 122.603 31.8043 122.607 32.019C122.617 32.229 122.666 32.4157 122.754 32.579C122.922 32.8917 123.188 33.0783 123.552 33.139C123.921 33.1997 124.376 33.1857 124.917 33.097V34ZM119.961 27.322V26.44H124.917V27.322H119.961ZM128.57 34.21C128 34.21 127.522 34.1073 127.135 33.902C126.752 33.6967 126.465 33.4237 126.274 33.083C126.082 32.7423 125.987 32.3713 125.987 31.97C125.987 31.5593 126.068 31.2093 126.232 30.92C126.4 30.626 126.626 30.3857 126.911 30.199C127.2 30.0123 127.534 29.87 127.912 29.772C128.294 29.6787 128.717 29.597 129.179 29.527C129.645 29.4523 130.1 29.3893 130.544 29.338C130.992 29.282 131.384 29.2283 131.72 29.177L131.356 29.401C131.37 28.6543 131.225 28.1013 130.922 27.742C130.618 27.3827 130.091 27.203 129.34 27.203C128.822 27.203 128.383 27.3197 128.024 27.553C127.669 27.7863 127.419 28.155 127.275 28.659L126.274 28.365C126.446 27.6883 126.794 27.1633 127.317 26.79C127.839 26.4167 128.518 26.23 129.354 26.23C130.044 26.23 130.63 26.3607 131.111 26.622C131.596 26.8787 131.939 27.252 132.14 27.742C132.233 27.9613 132.294 28.2063 132.322 28.477C132.35 28.7477 132.364 29.023 132.364 29.303V34H131.447V32.103L131.713 32.215C131.456 32.8637 131.057 33.3583 130.516 33.699C129.974 34.0397 129.326 34.21 128.57 34.21ZM128.689 33.321C129.169 33.321 129.589 33.2347 129.949 33.062C130.308 32.8893 130.597 32.6537 130.817 32.355C131.036 32.0517 131.178 31.711 131.244 31.333C131.3 31.0903 131.33 30.8243 131.335 30.535C131.339 30.241 131.342 30.0217 131.342 29.877L131.734 30.08C131.384 30.1267 131.003 30.1733 130.593 30.22C130.187 30.2667 129.785 30.3203 129.389 30.381C128.997 30.4417 128.642 30.514 128.325 30.598C128.11 30.6587 127.902 30.745 127.702 30.857C127.501 30.9643 127.335 31.109 127.205 31.291C127.079 31.473 127.016 31.6993 127.016 31.97C127.016 32.1893 127.069 32.4017 127.177 32.607C127.289 32.8123 127.466 32.9827 127.709 33.118C127.956 33.2533 128.283 33.321 128.689 33.321ZM134.326 34V23.71H135.355V34H134.326ZM140.256 34V23.92H144.148C144.713 23.92 145.205 24.0367 145.625 24.27C146.045 24.5033 146.372 24.8183 146.605 25.215C146.839 25.607 146.955 26.041 146.955 26.517C146.955 27.0583 146.811 27.5413 146.521 27.966C146.232 28.386 145.845 28.6777 145.359 28.841L145.345 28.498C145.999 28.6847 146.512 29.0113 146.885 29.478C147.259 29.9447 147.445 30.5093 147.445 31.172C147.445 31.7553 147.322 32.2593 147.074 32.684C146.827 33.104 146.479 33.4283 146.031 33.657C145.583 33.8857 145.063 34 144.47 34H140.256ZM141.292 33.013H144.218C144.629 33.013 144.998 32.9407 145.324 32.796C145.651 32.6467 145.908 32.4367 146.094 32.166C146.286 31.8953 146.381 31.5687 146.381 31.186C146.381 30.8127 146.295 30.4767 146.122 30.178C145.95 29.8793 145.714 29.6413 145.415 29.464C145.121 29.282 144.785 29.191 144.407 29.191H141.292V33.013ZM141.292 28.218H144.141C144.463 28.218 144.757 28.1457 145.023 28.001C145.289 27.8517 145.499 27.6487 145.653 27.392C145.812 27.1353 145.891 26.839 145.891 26.503C145.891 26.027 145.726 25.6397 145.394 25.341C145.068 25.0423 144.65 24.893 144.141 24.893H141.292V28.218ZM151.005 34.21C150.436 34.21 149.958 34.1073 149.57 33.902C149.188 33.6967 148.901 33.4237 148.709 33.083C148.518 32.7423 148.422 32.3713 148.422 31.97C148.422 31.5593 148.504 31.2093 148.667 30.92C148.835 30.626 149.062 30.3857 149.346 30.199C149.636 30.0123 149.969 29.87 150.347 29.772C150.73 29.6787 151.152 29.597 151.614 29.527C152.081 29.4523 152.536 29.3893 152.979 29.338C153.427 29.282 153.819 29.2283 154.155 29.177L153.791 29.401C153.805 28.6543 153.661 28.1013 153.357 27.742C153.054 27.3827 152.527 27.203 151.775 27.203C151.257 27.203 150.819 27.3197 150.459 27.553C150.105 27.7863 149.855 28.155 149.71 28.659L148.709 28.365C148.882 27.6883 149.23 27.1633 149.752 26.79C150.275 26.4167 150.954 26.23 151.789 26.23C152.48 26.23 153.066 26.3607 153.546 26.622C154.032 26.8787 154.375 27.252 154.575 27.742C154.669 27.9613 154.729 28.2063 154.757 28.477C154.785 28.7477 154.799 29.023 154.799 29.303V34H153.882V32.103L154.148 32.215C153.892 32.8637 153.493 33.3583 152.951 33.699C152.41 34.0397 151.761 34.21 151.005 34.21ZM151.124 33.321C151.605 33.321 152.025 33.2347 152.384 33.062C152.744 32.8893 153.033 32.6537 153.252 32.355C153.472 32.0517 153.614 31.711 153.679 31.333C153.735 31.0903 153.766 30.8243 153.77 30.535C153.775 30.241 153.777 30.0217 153.777 29.877L154.169 30.08C153.819 30.1267 153.439 30.1733 153.028 30.22C152.622 30.2667 152.221 30.3203 151.824 30.381C151.432 30.4417 151.078 30.514 150.76 30.598C150.546 30.6587 150.338 30.745 150.137 30.857C149.937 30.9643 149.771 31.109 149.64 31.291C149.514 31.473 149.451 31.6993 149.451 31.97C149.451 32.1893 149.505 32.4017 149.612 32.607C149.724 32.8123 149.902 32.9827 150.144 33.118C150.392 33.2533 150.718 33.321 151.124 33.321ZM156.762 34V23.71H157.791V34H156.762ZM162.052 34.21C161.483 34.21 161.005 34.1073 160.617 33.902C160.235 33.6967 159.948 33.4237 159.756 33.083C159.565 32.7423 159.469 32.3713 159.469 31.97C159.469 31.5593 159.551 31.2093 159.714 30.92C159.882 30.626 160.109 30.3857 160.393 30.199C160.683 30.0123 161.016 29.87 161.394 29.772C161.777 29.6787 162.199 29.597 162.661 29.527C163.128 29.4523 163.583 29.3893 164.026 29.338C164.474 29.282 164.866 29.2283 165.202 29.177L164.838 29.401C164.852 28.6543 164.708 28.1013 164.404 27.742C164.101 27.3827 163.574 27.203 162.822 27.203C162.304 27.203 161.866 27.3197 161.506 27.553C161.152 27.7863 160.902 28.155 160.757 28.659L159.756 28.365C159.929 27.6883 160.277 27.1633 160.799 26.79C161.322 26.4167 162.001 26.23 162.836 26.23C163.527 26.23 164.113 26.3607 164.593 26.622C165.079 26.8787 165.422 27.252 165.622 27.742C165.716 27.9613 165.776 28.2063 165.804 28.477C165.832 28.7477 165.846 29.023 165.846 29.303V34H164.929V32.103L165.195 32.215C164.939 32.8637 164.54 33.3583 163.998 33.699C163.457 34.0397 162.808 34.21 162.052 34.21ZM162.171 33.321C162.652 33.321 163.072 33.2347 163.431 33.062C163.791 32.8893 164.08 32.6537 164.299 32.355C164.519 32.0517 164.661 31.711 164.726 31.333C164.782 31.0903 164.813 30.8243 164.817 30.535C164.822 30.241 164.824 30.0217 164.824 29.877L165.216 30.08C164.866 30.1267 164.486 30.1733 164.075 30.22C163.669 30.2667 163.268 30.3203 162.871 30.381C162.479 30.4417 162.125 30.514 161.807 30.598C161.593 30.6587 161.385 30.745 161.184 30.857C160.984 30.9643 160.818 31.109 160.687 31.291C160.561 31.473 160.498 31.6993 160.498 31.97C160.498 32.1893 160.552 32.4017 160.659 32.607C160.771 32.8123 160.949 32.9827 161.191 33.118C161.439 33.2533 161.765 33.321 162.171 33.321ZM173.128 34V30.143C173.128 29.723 173.089 29.338 173.009 28.988C172.93 28.6333 172.802 28.3253 172.624 28.064C172.452 27.798 172.225 27.5927 171.945 27.448C171.67 27.3033 171.334 27.231 170.937 27.231C170.573 27.231 170.251 27.294 169.971 27.42C169.696 27.546 169.463 27.728 169.271 27.966C169.085 28.1993 168.942 28.484 168.844 28.82C168.746 29.156 168.697 29.5387 168.697 29.968L167.969 29.807C167.969 29.0323 168.105 28.3813 168.375 27.854C168.646 27.3267 169.019 26.9277 169.495 26.657C169.971 26.3863 170.517 26.251 171.133 26.251C171.586 26.251 171.98 26.321 172.316 26.461C172.657 26.601 172.944 26.79 173.177 27.028C173.415 27.266 173.607 27.539 173.751 27.847C173.896 28.1503 174.001 28.4747 174.066 28.82C174.132 29.1607 174.164 29.5013 174.164 29.842V34H173.128ZM167.661 34V26.44H168.592V28.302H168.697V34H167.661ZM179.076 34.21C178.315 34.21 177.671 34.0397 177.144 33.699C176.617 33.3583 176.215 32.8893 175.94 32.292C175.669 31.69 175.529 30.9993 175.52 30.22C175.529 29.4267 175.674 28.7313 175.954 28.134C176.234 27.532 176.638 27.0653 177.165 26.734C177.692 26.398 178.332 26.23 179.083 26.23C179.848 26.23 180.513 26.4167 181.078 26.79C181.647 27.1633 182.037 27.6743 182.247 28.323L181.239 28.645C181.062 28.1923 180.779 27.8423 180.392 27.595C180.009 27.343 179.571 27.217 179.076 27.217C178.521 27.217 178.061 27.3453 177.697 27.602C177.333 27.854 177.062 28.2063 176.885 28.659C176.708 29.1117 176.617 29.632 176.612 30.22C176.621 31.1253 176.831 31.8533 177.242 32.404C177.653 32.95 178.264 33.223 179.076 33.223C179.589 33.223 180.026 33.1063 180.385 32.873C180.749 32.635 181.024 32.2897 181.211 31.837L182.247 32.145C181.967 32.817 181.556 33.3303 181.015 33.685C180.474 34.035 179.827 34.21 179.076 34.21ZM186.686 34.21C185.949 34.21 185.309 34.0467 184.768 33.72C184.231 33.3933 183.814 32.9337 183.515 32.341C183.216 31.7483 183.067 31.053 183.067 30.255C183.067 29.429 183.214 28.715 183.508 28.113C183.802 27.511 184.215 27.0467 184.747 26.72C185.284 26.3933 185.916 26.23 186.644 26.23C187.391 26.23 188.028 26.4027 188.555 26.748C189.082 27.0887 189.481 27.5787 189.752 28.218C190.023 28.8573 190.146 29.6203 190.123 30.507H189.073V30.143C189.054 29.163 188.842 28.4233 188.436 27.924C188.035 27.4247 187.447 27.175 186.672 27.175C185.86 27.175 185.237 27.4387 184.803 27.966C184.374 28.4933 184.159 29.2447 184.159 30.22C184.159 31.172 184.374 31.9117 184.803 32.439C185.237 32.9617 185.851 33.223 186.644 33.223C187.185 33.223 187.657 33.0993 188.058 32.852C188.464 32.6 188.784 32.2383 189.017 31.767L189.976 32.138C189.677 32.796 189.236 33.307 188.653 33.671C188.074 34.0303 187.419 34.21 186.686 34.21ZM183.795 30.507V29.646H189.57V30.507H183.795Z" fill="black"/>
<path d="M109.136 62.592V60.696H111.064V62.592H109.136ZM109.136 49.792V47.896H111.064V49.792H109.136ZM110.144 61.24C109.333 61.24 108.608 61.0907 107.968 60.792C107.328 60.4933 106.803 60.072 106.392 59.528C105.987 58.984 105.728 58.3387 105.616 57.592L107.52 57.288C107.669 57.944 107.989 58.4667 108.48 58.856C108.976 59.24 109.568 59.432 110.256 59.432C110.917 59.432 111.461 59.2773 111.888 58.968C112.315 58.6533 112.528 58.256 112.528 57.776C112.528 57.44 112.427 57.168 112.224 56.96C112.021 56.7467 111.696 56.5707 111.248 56.432L108.472 55.568C106.856 55.0667 106.048 54.0853 106.048 52.624C106.048 51.9413 106.211 51.3467 106.536 50.84C106.867 50.328 107.331 49.936 107.928 49.664C108.525 49.3867 109.229 49.2507 110.04 49.256C110.792 49.2613 111.461 49.3973 112.048 49.664C112.64 49.9307 113.131 50.3147 113.52 50.816C113.915 51.3173 114.195 51.92 114.36 52.624L112.384 52.984C112.309 52.6053 112.163 52.272 111.944 51.984C111.725 51.696 111.451 51.472 111.12 51.312C110.789 51.152 110.421 51.0667 110.016 51.056C109.627 51.0507 109.277 51.112 108.968 51.24C108.659 51.3627 108.413 51.5387 108.232 51.768C108.051 51.992 107.96 52.2453 107.96 52.528C107.96 52.8427 108.085 53.112 108.336 53.336C108.592 53.56 108.995 53.752 109.544 53.912L111.616 54.512C112.613 54.8 113.331 55.192 113.768 55.688C114.211 56.1787 114.432 56.832 114.432 57.648C114.432 58.3627 114.253 58.9893 113.896 59.528C113.539 60.0667 113.037 60.488 112.392 60.792C111.747 61.0907 110.997 61.24 110.144 61.24ZM120.951 61V59.096H115.847V57.296L119.535 49.48H121.735L118.047 57.296H120.951V54.296H122.903V57.296H123.983V59.096H122.903V61H120.951ZM125.429 63.04L125.541 62.208C125.786 62.2293 125.981 62.1867 126.125 62.08C126.269 61.9787 126.365 61.832 126.413 61.64C126.466 61.4533 126.479 61.24 126.453 61H125.429V58.944H127.405V61.08C127.405 61.7787 127.239 62.3067 126.909 62.664C126.578 63.0213 126.085 63.1467 125.429 63.04ZM130.128 60.984V59.304L135.056 54.912C135.44 54.5707 135.707 54.248 135.856 53.944C136.005 53.64 136.08 53.3467 136.08 53.064C136.08 52.68 135.997 52.3387 135.832 52.04C135.667 51.736 135.437 51.496 135.144 51.32C134.856 51.144 134.523 51.056 134.144 51.056C133.744 51.056 133.389 51.1493 133.08 51.336C132.776 51.5173 132.539 51.76 132.368 52.064C132.197 52.368 132.117 52.696 132.128 53.048H130.144C130.144 52.28 130.315 51.6107 130.656 51.04C131.003 50.4693 131.477 50.0267 132.08 49.712C132.688 49.3973 133.389 49.24 134.184 49.24C134.92 49.24 135.581 49.4053 136.168 49.736C136.755 50.0613 137.216 50.5147 137.552 51.096C137.888 51.672 138.056 52.336 138.056 53.088C138.056 53.6373 137.981 54.0987 137.832 54.472C137.683 54.8453 137.459 55.1893 137.16 55.504C136.867 55.8187 136.501 56.168 136.064 56.552L132.568 59.648L132.392 59.168H138.056V60.984H130.128ZM144.123 61.24C143.307 61.24 142.587 61.0667 141.963 60.72C141.339 60.368 140.851 59.88 140.499 59.256C140.153 58.632 139.979 57.912 139.979 57.096V53.384C139.979 52.568 140.153 51.848 140.499 51.224C140.851 50.6 141.339 50.1147 141.963 49.768C142.587 49.416 143.307 49.24 144.123 49.24C144.939 49.24 145.657 49.416 146.275 49.768C146.899 50.1147 147.387 50.6 147.739 51.224C148.091 51.848 148.267 52.568 148.267 53.384V57.096C148.267 57.912 148.091 58.632 147.739 59.256C147.387 59.88 146.899 60.368 146.275 60.72C145.657 61.0667 144.939 61.24 144.123 61.24ZM144.123 59.408C144.529 59.408 144.897 59.312 145.227 59.12C145.558 58.9227 145.819 58.6613 146.011 58.336C146.203 58.0053 146.299 57.6373 146.299 57.232V53.24C146.299 52.8293 146.203 52.4613 146.011 52.136C145.819 51.8053 145.558 51.544 145.227 51.352C144.897 51.1547 144.529 51.056 144.123 51.056C143.718 51.056 143.35 51.1547 143.019 51.352C142.689 51.544 142.427 51.8053 142.235 52.136C142.043 52.4613 141.947 52.8293 141.947 53.24V57.232C141.947 57.6373 142.043 58.0053 142.235 58.336C142.427 58.6613 142.689 58.9227 143.019 59.12C143.35 59.312 143.718 59.408 144.123 59.408ZM154.655 61.24C153.839 61.24 153.119 61.0667 152.495 60.72C151.871 60.368 151.383 59.88 151.031 59.256C150.684 58.632 150.511 57.912 150.511 57.096V53.384C150.511 52.568 150.684 51.848 151.031 51.224C151.383 50.6 151.871 50.1147 152.495 49.768C153.119 49.416 153.839 49.24 154.655 49.24C155.471 49.24 156.188 49.416 156.807 49.768C157.431 50.1147 157.919 50.6 158.271 51.224C158.623 51.848 158.799 52.568 158.799 53.384V57.096C158.799 57.912 158.623 58.632 158.271 59.256C157.919 59.88 157.431 60.368 156.807 60.72C156.188 61.0667 155.471 61.24 154.655 61.24ZM154.655 59.408C155.06 59.408 155.428 59.312 155.759 59.12C156.089 58.9227 156.351 58.6613 156.543 58.336C156.735 58.0053 156.831 57.6373 156.831 57.232V53.24C156.831 52.8293 156.735 52.4613 156.543 52.136C156.351 51.8053 156.089 51.544 155.759 51.352C155.428 51.1547 155.06 51.056 154.655 51.056C154.249 51.056 153.881 51.1547 153.551 51.352C153.22 51.544 152.959 51.8053 152.767 52.136C152.575 52.4613 152.479 52.8293 152.479 53.24V57.232C152.479 57.6373 152.575 58.0053 152.767 58.336C152.959 58.6613 153.22 58.9227 153.551 59.12C153.881 59.312 154.249 59.408 154.655 59.408Z" fill="black"/>
<path d="M169.435 51.787V53.113H167.238V55.31H165.912V53.113H163.715V51.787H165.912V49.59H167.238V51.787H169.435ZM172.708 47.9H174.008V57H172.513V49.499L170.68 50.019L170.316 48.745L172.708 47.9ZM182.303 53.971V55.362H181.263V57H179.755V55.362H175.283V53.971L178.416 47.9H180.041L176.908 53.971H179.755V51.605H181.263V53.971H182.303ZM186.168 51.293C185.769 51.6917 185.267 51.891 184.66 51.891C184.053 51.891 183.546 51.6917 183.139 51.293C182.732 50.8857 182.528 50.3917 182.528 49.811C182.528 49.2303 182.732 48.7407 183.139 48.342C183.546 47.9347 184.053 47.731 184.66 47.731C185.267 47.731 185.769 47.9303 186.168 48.329C186.575 48.7277 186.779 49.2217 186.779 49.811C186.779 50.3917 186.575 50.8857 186.168 51.293ZM184.647 50.747C184.924 50.747 185.15 50.656 185.323 50.474C185.496 50.292 185.583 50.071 185.583 49.811C185.583 49.5423 185.496 49.317 185.323 49.135C185.15 48.953 184.924 48.862 184.647 48.862C184.378 48.862 184.157 48.953 183.984 49.135C183.811 49.317 183.724 49.5423 183.724 49.811C183.724 50.071 183.811 50.292 183.984 50.474C184.157 50.656 184.378 50.747 184.647 50.747ZM183.295 55.661L189.288 48.992L189.99 49.395L183.997 56.077L183.295 55.661ZM188.82 57.156C188.213 57.156 187.706 56.9567 187.299 56.558C186.892 56.1507 186.688 55.6567 186.688 55.076C186.688 54.4953 186.892 54.0057 187.299 53.607C187.706 53.1997 188.213 52.996 188.82 52.996C189.418 52.996 189.921 53.1997 190.328 53.607C190.735 54.0057 190.939 54.4953 190.939 55.076C190.939 55.6567 190.735 56.1507 190.328 56.558C189.921 56.9567 189.418 57.156 188.82 57.156ZM188.807 56.012C189.084 56.012 189.31 55.921 189.483 55.739C189.656 55.557 189.743 55.336 189.743 55.076C189.743 54.8073 189.656 54.582 189.483 54.4C189.31 54.218 189.084 54.127 188.807 54.127C188.538 54.127 188.317 54.218 188.144 54.4C187.971 54.582 187.884 54.8073 187.884 55.076C187.884 55.336 187.971 55.557 188.144 55.739C188.317 55.921 188.538 56.012 188.807 56.012Z" fill="#00E1F0"/>
<path d="M105.443 74.4H106.243V80H105.323V75.384L104.195 75.704L103.971 74.92L105.443 74.4ZM110.98 79.312C110.596 79.84 110.057 80.104 109.364 80.104C108.67 80.104 108.129 79.84 107.74 79.312C107.356 78.784 107.164 78.08 107.164 77.2C107.164 76.32 107.356 75.616 107.74 75.088C108.129 74.56 108.67 74.296 109.364 74.296C110.057 74.296 110.596 74.56 110.98 75.088C111.369 75.616 111.564 76.32 111.564 77.2C111.564 78.08 111.369 78.784 110.98 79.312ZM109.364 79.208C109.78 79.208 110.097 79.0347 110.316 78.688C110.534 78.3413 110.644 77.8453 110.644 77.2C110.644 76.5547 110.534 76.0587 110.316 75.712C110.097 75.3653 109.78 75.192 109.364 75.192C108.953 75.192 108.636 75.3653 108.412 75.712C108.193 76.0587 108.084 76.5547 108.084 77.2C108.084 77.8453 108.193 78.3413 108.412 78.688C108.636 79.0347 108.953 79.208 109.364 79.208ZM115.923 80H114.891L113.251 78.152V80H112.387V74.4H113.251V77.768L114.803 76H115.859L114.099 77.96L115.923 80Z" fill="#718EBF"/>
<path d="M111.746 97.136V97.992H111.106V99H110.178V97.992H107.426V97.136L109.354 93.4H110.354L108.426 97.136H110.178V95.68H111.106V97.136H111.746ZM115.923 99H114.891L113.251 97.152V99H112.387V93.4H113.251V96.768L114.803 95H115.859L114.099 96.96L115.923 99Z" fill="#718EBF"/>
<path d="M107.896 118V117.28L109.848 115.288C110.323 114.813 110.56 114.403 110.56 114.056C110.56 113.784 110.478 113.573 110.312 113.424C110.152 113.269 109.947 113.192 109.696 113.192C109.227 113.192 108.88 113.424 108.656 113.888L107.88 113.432C108.056 113.059 108.304 112.776 108.624 112.584C108.944 112.392 109.299 112.296 109.688 112.296C110.179 112.296 110.6 112.451 110.952 112.76C111.304 113.069 111.48 113.491 111.48 114.024C111.48 114.595 111.163 115.203 110.528 115.848L109.264 117.112H111.584V118H107.896ZM115.923 118H114.891L113.251 116.152V118H112.387V112.4H113.251V115.768L114.803 114H115.859L114.099 115.96L115.923 118Z" fill="#718EBF"/>
<path d="M115.097 137.312C114.713 137.84 114.174 138.104 113.481 138.104C112.788 138.104 112.246 137.84 111.857 137.312C111.473 136.784 111.281 136.08 111.281 135.2C111.281 134.32 111.473 133.616 111.857 133.088C112.246 132.56 112.788 132.296 113.481 132.296C114.174 132.296 114.713 132.56 115.097 133.088C115.486 133.616 115.681 134.32 115.681 135.2C115.681 136.08 115.486 136.784 115.097 137.312ZM113.481 137.208C113.897 137.208 114.214 137.035 114.433 136.688C114.652 136.341 114.761 135.845 114.761 135.2C114.761 134.555 114.652 134.059 114.433 133.712C114.214 133.365 113.897 133.192 113.481 133.192C113.07 133.192 112.753 133.365 112.529 133.712C112.31 134.059 112.201 134.555 112.201 135.2C112.201 135.845 112.31 136.341 112.529 136.688C112.753 137.035 113.07 137.208 113.481 137.208Z" fill="#718EBF"/>
<path d="M134.6 150.104C134.061 150.104 133.602 149.981 133.224 149.736C132.85 149.491 132.589 149.155 132.44 148.728L133.232 148.264C133.456 148.893 133.92 149.208 134.624 149.208C134.97 149.208 135.229 149.141 135.4 149.008C135.576 148.869 135.664 148.691 135.664 148.472C135.664 148.243 135.57 148.069 135.384 147.952C135.197 147.829 134.866 147.696 134.392 147.552C134.125 147.472 133.909 147.397 133.744 147.328C133.578 147.259 133.402 147.163 133.216 147.04C133.034 146.912 132.898 146.755 132.808 146.568C132.717 146.381 132.672 146.163 132.672 145.912C132.672 145.416 132.848 145.024 133.2 144.736C133.552 144.443 133.976 144.296 134.472 144.296C134.92 144.296 135.312 144.405 135.648 144.624C135.984 144.843 136.242 145.144 136.424 145.528L135.648 145.976C135.413 145.453 135.021 145.192 134.472 145.192C134.205 145.192 133.992 145.256 133.832 145.384C133.672 145.507 133.592 145.675 133.592 145.888C133.592 146.096 133.672 146.261 133.832 146.384C133.997 146.501 134.293 146.627 134.72 146.76C134.933 146.829 135.088 146.883 135.184 146.92C135.285 146.952 135.424 147.005 135.6 147.08C135.781 147.155 135.917 147.229 136.008 147.304C136.098 147.379 136.194 147.472 136.296 147.584C136.402 147.696 136.477 147.824 136.52 147.968C136.562 148.112 136.584 148.275 136.584 148.456C136.584 148.963 136.4 149.365 136.032 149.664C135.669 149.957 135.192 150.104 134.6 150.104Z" fill="#718EBF"/>
<path d="M124 131C124 129.343 125.343 128 127 128H141C142.657 128 144 129.343 144 131V140H124V131Z" fill="white"/>
<path d="M161.182 144.4V150H160.262V146.008L158.558 148.824H158.446L156.742 146V150H155.822V144.4H156.814L158.502 147.2L160.198 144.4H161.182Z" fill="#718EBF"/>
<path d="M148 125C148 123.343 149.343 122 151 122H165C166.657 122 168 123.343 168 125V140H148V125Z" fill="white"/>
<path d="M184.54 144.4V145.28H182.964V150H182.044V145.28H180.46V144.4H184.54Z" fill="#718EBF"/>
<path d="M172 101C172 99.3431 173.343 98 175 98H189C190.657 98 192 99.3431 192 101V140H172V101Z" fill="white"/>
<path d="M203.748 150L202.164 144.4H203.132L204.308 148.776L205.58 144.4H206.428L207.692 148.776L208.868 144.4H209.836L208.252 150H207.188L206.004 145.912L204.812 150H203.748Z" fill="#718EBF"/>
<path d="M196 112C196 110.343 197.343 109 199 109H213C214.657 109 216 110.343 216 112V140H196V112Z" fill="#3734A9"/>
<path d="M232.54 144.4V145.28H230.964V150H230.044V145.28H228.46V144.4H232.54Z" fill="#718EBF"/>
<path d="M220 84C220 82.3431 221.343 81 223 81H237C238.657 81 240 82.3431 240 84V140H220V84Z" fill="#3734A9"/>
<path d="M257.27 145.28H254.91V146.848H257.19V147.728H254.91V150H253.99V144.4H257.27V145.28Z" fill="#718EBF"/>
<path d="M244 131C244 129.343 245.343 128 247 128H261C262.657 128 264 129.343 264 131V140H244V131Z" fill="white"/>
<path d="M278.6 150.104C278.061 150.104 277.602 149.981 277.224 149.736C276.85 149.491 276.589 149.155 276.44 148.728L277.232 148.264C277.456 148.893 277.92 149.208 278.624 149.208C278.97 149.208 279.229 149.141 279.4 149.008C279.576 148.869 279.664 148.691 279.664 148.472C279.664 148.243 279.57 148.069 279.384 147.952C279.197 147.829 278.866 147.696 278.392 147.552C278.125 147.472 277.909 147.397 277.744 147.328C277.578 147.259 277.402 147.163 277.216 147.04C277.034 146.912 276.898 146.755 276.808 146.568C276.717 146.381 276.672 146.163 276.672 145.912C276.672 145.416 276.848 145.024 277.2 144.736C277.552 144.443 277.976 144.296 278.472 144.296C278.92 144.296 279.312 144.405 279.648 144.624C279.984 144.843 280.242 145.144 280.424 145.528L279.648 145.976C279.413 145.453 279.021 145.192 278.472 145.192C278.205 145.192 277.992 145.256 277.832 145.384C277.672 145.507 277.592 145.675 277.592 145.888C277.592 146.096 277.672 146.261 277.832 146.384C277.997 146.501 278.293 146.627 278.72 146.76C278.933 146.829 279.088 146.883 279.184 146.92C279.285 146.952 279.424 147.005 279.6 147.08C279.781 147.155 279.917 147.229 280.008 147.304C280.098 147.379 280.194 147.472 280.296 147.584C280.402 147.696 280.477 147.824 280.52 147.968C280.562 148.112 280.584 148.275 280.584 148.456C280.584 148.963 280.4 149.365 280.032 149.664C279.669 149.957 279.192 150.104 278.6 150.104Z" fill="#718EBF"/>
<path d="M268 112C268 110.343 269.343 109 271 109H285C286.657 109 288 110.343 288 112V140H268V112Z" fill="#3734A9"/>
<path d="M303.6 150.104C303.061 150.104 302.602 149.981 302.224 149.736C301.85 149.491 301.589 149.155 301.44 148.728L302.232 148.264C302.456 148.893 302.92 149.208 303.624 149.208C303.97 149.208 304.229 149.141 304.4 149.008C304.576 148.869 304.664 148.691 304.664 148.472C304.664 148.243 304.57 148.069 304.384 147.952C304.197 147.829 303.866 147.696 303.392 147.552C303.125 147.472 302.909 147.397 302.744 147.328C302.578 147.259 302.402 147.163 302.216 147.04C302.034 146.912 301.898 146.755 301.808 146.568C301.717 146.381 301.672 146.163 301.672 145.912C301.672 145.416 301.848 145.024 302.2 144.736C302.552 144.443 302.976 144.296 303.472 144.296C303.92 144.296 304.312 144.405 304.648 144.624C304.984 144.843 305.242 145.144 305.424 145.528L304.648 145.976C304.413 145.453 304.021 145.192 303.472 145.192C303.205 145.192 302.992 145.256 302.832 145.384C302.672 145.507 302.592 145.675 302.592 145.888C302.592 146.096 302.672 146.261 302.832 146.384C302.997 146.501 303.293 146.627 303.72 146.76C303.933 146.829 304.088 146.883 304.184 146.92C304.285 146.952 304.424 147.005 304.6 147.08C304.781 147.155 304.917 147.229 305.008 147.304C305.098 147.379 305.194 147.472 305.296 147.584C305.402 147.696 305.477 147.824 305.52 147.968C305.562 148.112 305.584 148.275 305.584 148.456C305.584 148.963 305.4 149.365 305.032 149.664C304.669 149.957 304.192 150.104 303.6 150.104Z" fill="#718EBF"/>
<path d="M292 97C292 95.3431 293.343 94 295 94H309C310.657 94 312 95.3431 312 97V140H292V97Z" fill="#3734A9"/>
<defs>
<filter id="filter0_bdddddd_35_959" x="0.90284" y="-62" width="419.194" height="430.219" filterUnits="userSpaceOnUse" color-interpolation-filters="sRGB">
<feFlood flood-opacity="0" result="BackgroundImageFix"/>
<feGaussianBlur in="BackgroundImage" stdDeviation="32"/>
<feComposite in2="SourceAlpha" operator="in" result="effect1_backgroundBlur_35_959"/>
<feColorMatrix in="SourceAlpha" type="matrix" values="0 0 0 0 0 0 0 0 0 0 0 0 0 0 0 0 0 0 127 0" result="hardAlpha"/>
<feOffset dy="2.03929"/>
<feGaussianBlur stdDeviation="1.73339"/>
<feColorMatrix type="matrix" values="0 0 0 0 0 0 0 0 0 0 0 0 0 0 0 0 0 0 0.01 0"/>
<feBlend mode="normal" in2="effect1_backgroundBlur_35_959" result="effect2_dropShadow_35_959"/>
<feColorMatrix in="SourceAlpha" type="matrix" values="0 0 0 0 0 0 0 0 0 0 0 0 0 0 0 0 0 0 127 0" result="hardAlpha"/>
<feOffset dy="8.97286"/>
<feGaussianBlur stdDeviation="3.58914"/>
<feColorMatrix type="matrix" values="0 0 0 0 0 0 0 0 0 0 0 0 0 0 0 0 0 0 0.0117778 0"/>
<feBlend mode="normal" in2="effect2_dropShadow_35_959" result="effect3_dropShadow_35_959"/>
<feColorMatrix in="SourceAlpha" type="matrix" values="0 0 0 0 0 0 0 0 0 0 0 0 0 0 0 0 0 0 127 0" result="hardAlpha"/>
<feOffset dy="22.0243"/>
<feGaussianBlur stdDeviation="7.15789"/>
<feColorMatrix type="matrix" values="0 0 0 0 0 0 0 0 0 0 0 0 0 0 0 0 0 0 0.015 0"/>
<feBlend mode="normal" in2="effect3_dropShadow_35_959" result="effect4_dropShadow_35_959"/>
<feColorMatrix in="SourceAlpha" type="matrix" values="0 0 0 0 0 0 0 0 0 0 0 0 0 0 0 0 0 0 127 0" result="hardAlpha"/>
<feOffset dy="42.4172"/>
<feGaussianBlur stdDeviation="14.0303"/>
<feColorMatrix type="matrix" values="0 0 0 0 0 0 0 0 0 0 0 0 0 0 0 0 0 0 0.0182222 0"/>
<feBlend mode="normal" in2="effect4_dropShadow_35_959" result="effect5_dropShadow_35_959"/>
<feColorMatrix in="SourceAlpha" type="matrix" values="0 0 0 0 0 0 0 0 0 0 0 0 0 0 0 0 0 0 127 0" result="hardAlpha"/>
<feOffset dy="71.375"/>
<feGaussianBlur stdDeviation="25.797"/>
<feColorMatrix type="matrix" values="0 0 0 0 0 0 0 0 0 0 0 0 0 0 0 0 0 0 0.0227778 0"/>
<feBlend mode="normal" in2="effect5_dropShadow_35_959" result="effect6_dropShadow_35_959"/>
<feColorMatrix in="SourceAlpha" type="matrix" values="0 0 0 0 0 0 0 0 0 0 0 0 0 0 0 0 0 0 127 0" result="hardAlpha"/>
<feOffset dy="110.121"/>
<feGaussianBlur stdDeviation="44.0486"/>
<feColorMatrix type="matrix" values="0 0 0 0 0 0 0 0 0 0 0 0 0 0 0 0 0 0 0.03 0"/>
<feBlend mode="normal" in2="effect6_dropShadow_35_959" result="effect7_dropShadow_35_959"/>
<feBlend mode="normal" in="SourceGraphic" in2="effect7_dropShadow_35_959" result="shape"/>
</filter>
</defs>
</svg>
