<svg width="1440" height="567" viewBox="0 0 1440 567" fill="none" xmlns="http://www.w3.org/2000/svg">
<path opacity="0.2" fill-rule="evenodd" clip-rule="evenodd" d="M1500.45 54.5653C1468.65 37.2035 1411.49 15.1096 1343.32 5.20939C1275.15 -4.69116 1195.93 -2.40157 1120.02 29.0423C1096.28 38.8789 1079.81 50.954 1068.67 64.5913C1057.54 78.231 1051.75 93.4063 1049.33 109.406C1045.16 136.925 1050.92 166.934 1056.47 195.797C1057.37 200.452 1058.25 205.077 1059.1 209.657C1062.13 226.169 1064.53 242.101 1064.35 256.788C1064.17 271.471 1061.4 284.876 1054.12 296.353C1039.56 319.294 1006.79 334.756 939.695 337.005C838.722 340.389 769.522 310.807 710.894 285.743L710.893 285.743C691.642 277.513 673.531 269.771 655.808 263.843C619.965 251.853 585.732 247.31 546.988 261.307C508.269 275.295 465.107 307.776 411.335 369.676C357.635 431.494 312.82 449.85 272.844 444.236C232.809 438.613 197.447 408.938 162.691 374.213C154.295 365.825 145.936 357.143 137.557 348.441L137.557 348.441C111.296 321.166 84.8433 293.692 56.4929 274.458C37.7811 261.763 18.2108 252.632 -2.7178 249.505C-23.6536 246.377 -45.9168 249.263 -70 260.552L-69.5756 261.457C-45.6588 250.246 -23.5939 247.397 -2.86557 250.494C17.8699 253.592 37.2996 262.644 55.9315 275.285C84.1869 294.455 110.534 321.819 136.778 349.075C145.171 357.792 153.553 366.497 161.984 374.92C196.728 409.633 232.303 439.552 272.705 445.226C313.166 450.908 358.289 432.265 412.09 370.332C465.817 308.483 508.843 276.151 547.327 262.248C585.786 248.354 619.772 252.843 655.491 264.791C673.114 270.686 691.163 278.402 710.373 286.615C769.029 311.692 838.51 341.397 939.729 338.004C1006.89 335.753 1040.12 320.277 1054.96 296.889C1062.38 285.203 1065.17 271.596 1065.35 256.8C1065.53 242.009 1063.11 225.996 1060.08 209.476C1059.24 204.913 1058.36 200.311 1057.47 195.685L1057.45 195.583C1051.9 166.705 1046.17 136.89 1050.32 109.556C1052.72 93.7037 1058.44 78.7032 1069.45 65.2238C1080.46 51.7419 1096.77 39.7545 1120.4 29.9661C1196.1 -1.39002 1275.13 -3.68376 1343.18 6.19901C1411.23 16.0822 1468.27 38.1382 1499.97 55.4431L1500.45 54.5653ZM1363.32 45.2094C1431.49 55.1096 1488.65 77.2035 1520.45 94.5653L1519.97 95.4431C1488.27 78.1382 1431.23 56.0822 1363.18 46.199C1295.13 36.3162 1216.1 38.61 1140.4 69.9661C1116.77 79.7545 1100.46 91.7419 1089.45 105.224C1078.44 118.703 1072.72 133.704 1070.32 149.556C1066.17 176.89 1071.9 206.705 1077.45 235.583L1077.47 235.685L1077.49 235.811C1078.37 240.395 1079.25 244.954 1080.08 249.476C1083.11 265.996 1085.53 282.009 1085.35 296.8C1085.17 311.596 1082.38 325.203 1074.96 336.889C1060.12 360.277 1026.89 375.753 959.729 378.004C858.51 381.397 789.029 351.692 730.373 326.615C711.163 318.402 693.114 310.686 675.491 304.791C639.772 292.843 605.786 288.354 567.327 302.248C528.843 316.151 485.817 348.483 432.09 410.332C378.289 472.265 333.166 490.908 292.705 485.226C252.303 479.552 216.728 449.633 181.984 414.92C173.553 406.497 165.171 397.792 156.778 389.075C130.534 361.819 104.187 334.455 75.9315 315.285C57.2996 302.644 37.8699 293.592 17.1344 290.494C-3.59387 287.397 -25.6588 290.246 -49.5756 301.457L-50 300.552C-25.9168 289.263 -3.65356 286.377 17.2822 289.505C38.2108 292.632 57.7811 301.763 76.4929 314.458C104.843 333.692 131.296 361.166 157.557 388.441L157.557 388.441C165.936 397.143 174.295 405.825 182.691 414.213C217.447 448.938 252.809 478.613 292.844 484.236C332.82 489.85 377.635 471.494 431.335 409.676C485.107 347.776 528.269 315.295 566.988 301.307C605.732 287.31 639.965 291.853 675.808 303.843C693.531 309.771 711.642 317.513 730.893 325.743L730.894 325.743C789.522 350.807 858.722 380.389 959.696 377.005C1026.79 374.756 1059.56 359.294 1074.12 336.353C1081.4 324.876 1084.17 311.471 1084.35 296.788C1084.53 282.101 1082.13 266.169 1079.1 249.657C1078.25 245.077 1077.37 240.452 1076.47 235.797C1070.92 206.934 1065.16 176.925 1069.33 149.406C1071.75 133.406 1077.54 118.231 1088.67 104.591C1099.81 90.954 1116.28 78.8789 1140.02 69.0423C1215.93 37.5984 1295.15 35.3088 1363.32 45.2094ZM1540.45 134.565C1508.65 117.203 1451.49 95.1096 1383.32 85.2094C1315.15 75.3088 1235.93 77.5984 1160.02 109.042C1136.28 118.879 1119.81 130.954 1108.67 144.591C1097.54 158.231 1091.75 173.406 1089.33 189.406C1085.16 216.925 1090.92 246.934 1096.47 275.797C1097.37 280.452 1098.25 285.077 1099.1 289.657C1102.13 306.169 1104.53 322.101 1104.35 336.788C1104.17 351.471 1101.4 364.876 1094.12 376.353C1079.56 399.294 1046.79 414.756 979.696 417.005C878.722 420.389 809.522 390.807 750.894 365.743L750.893 365.743C731.642 357.513 713.531 349.771 695.808 343.843C659.965 331.853 625.732 327.31 586.988 341.307C548.269 355.295 505.107 387.776 451.335 449.676C397.635 511.494 352.82 529.85 312.844 524.236C272.809 518.613 237.447 488.938 202.691 454.213C194.295 445.825 185.936 437.143 177.557 428.441C151.296 401.166 124.843 373.692 96.4929 354.458C77.7811 341.763 58.2108 332.632 37.2822 329.505C16.3464 326.377 -5.9168 329.263 -30 340.552L-29.5756 341.457C-5.65876 330.246 16.4061 327.397 37.1344 330.494C57.8699 333.592 77.2996 342.644 95.9315 355.285C124.187 374.455 150.534 401.819 176.778 429.075C185.171 437.792 193.553 446.497 201.984 454.92C236.728 489.633 272.303 519.552 312.705 525.226C353.166 530.908 398.289 512.265 452.09 450.332C505.817 388.483 548.843 356.151 587.327 342.248C625.786 328.354 659.772 332.843 695.491 344.791C713.114 350.686 731.163 358.402 750.373 366.615C809.029 391.692 878.51 421.397 979.729 418.004C1046.89 415.753 1080.12 400.277 1094.96 376.889C1102.38 365.203 1105.17 351.596 1105.35 336.8C1105.53 322.009 1103.11 305.996 1100.08 289.476C1099.24 284.913 1098.36 280.31 1097.47 275.684L1097.45 275.583C1091.9 246.705 1086.17 216.89 1090.32 189.556C1092.72 173.704 1098.44 158.703 1109.45 145.224C1120.46 131.742 1136.77 119.755 1160.4 109.966C1236.1 78.61 1315.13 76.3162 1383.18 86.199C1451.23 96.0822 1508.27 118.138 1539.97 135.443L1540.45 134.565ZM1560.45 174.565C1528.65 157.203 1471.49 135.11 1403.32 125.209C1335.15 115.309 1255.93 117.598 1180.02 149.042C1156.28 158.879 1139.81 170.954 1128.67 184.591C1117.54 198.231 1111.75 213.406 1109.33 229.406C1105.16 256.925 1110.92 286.934 1116.47 315.797C1117.37 320.452 1118.25 325.077 1119.1 329.657C1122.13 346.169 1124.53 362.101 1124.35 376.788C1124.17 391.471 1121.4 404.876 1114.12 416.353C1099.56 439.294 1066.79 454.756 999.696 457.005C898.722 460.389 829.522 430.807 770.894 405.743L770.893 405.743C751.642 397.513 733.531 389.771 715.808 383.843C679.965 371.853 645.732 367.31 606.988 381.307C568.269 395.295 525.107 427.776 471.335 489.676C417.635 551.494 372.82 569.85 332.844 564.236C292.809 558.613 257.447 528.938 222.691 494.213C214.299 485.829 205.943 477.15 197.567 468.451L197.559 468.442L197.557 468.441C171.296 441.166 144.843 413.692 116.493 394.458C97.7811 381.763 78.2108 372.632 57.2822 369.505C36.3464 366.377 14.0832 369.263 -10 380.552L-9.57557 381.457C14.3412 370.246 36.4061 367.397 57.1344 370.494C77.8699 373.592 97.2996 382.644 115.932 395.285C144.187 414.455 170.534 441.819 196.778 469.075C205.171 477.792 213.553 486.497 221.984 494.92C256.728 529.633 292.303 559.552 332.705 565.226C373.166 570.908 418.289 552.265 472.09 490.332C525.817 428.483 568.843 396.151 607.327 382.248C645.786 368.354 679.772 372.843 715.491 384.791C733.114 390.686 751.163 398.402 770.373 406.615C829.029 431.692 898.51 461.397 999.729 458.004C1066.89 455.753 1100.12 440.277 1114.96 416.889C1122.38 405.203 1125.17 391.596 1125.35 376.8C1125.53 362.009 1123.11 345.996 1120.08 329.476C1119.24 324.913 1118.36 320.31 1117.47 315.684L1117.45 315.583C1111.9 286.705 1106.17 256.89 1110.32 229.556C1112.72 213.704 1118.44 198.703 1129.45 185.224C1140.46 171.742 1156.77 159.755 1180.4 149.966C1256.1 118.61 1335.13 116.316 1403.18 126.199C1471.23 136.082 1528.27 158.138 1559.97 175.443L1560.45 174.565Z" fill="url(#paint0_linear_35_902)"/>
<defs>
<linearGradient id="paint0_linear_35_902" x1="117.5" y1="422.5" x2="1546.5" y2="422.5" gradientUnits="userSpaceOnUse">
<stop offset="0.341667" stop-color="#4535AF" stop-opacity="0.7"/>
<stop offset="0.511553" stop-color="#F8EFF4" stop-opacity="0.1"/>
<stop offset="0.851637" stop-color="#4535AF" stop-opacity="0.8"/>
</linearGradient>
</defs>
</svg>
