<svg width="108" height="98" viewBox="0 0 108 98" fill="none" xmlns="http://www.w3.org/2000/svg">
<path fill-rule="evenodd" clip-rule="evenodd" d="M24.3967 63.4769C25.9889 63.8505 27.4966 63.6169 28.9244 62.7951C27.3574 62.6054 25.8932 63.1592 24.3967 63.4769M37.0518 48.0322C37.1599 53.2271 35.5963 57.0506 33.4789 60.6409C31.9948 63.1576 29.5709 64.4167 26.6475 64.5658C24.1577 64.693 21.7061 64.4992 19.3315 63.5962C17.5413 62.9161 16.3546 61.6018 15.3642 60.085C13.5231 57.2643 11.361 54.548 11.2868 50.9614C11.1936 46.4831 12.1161 42.2706 15.0739 38.7346C16.3264 37.2377 17.813 36.2328 19.9722 36.5696C22.1153 36.9038 22.9801 39.5137 22.964 41.0773C22.9565 41.8009 22.3526 42.1654 21.9964 42.59C20.374 44.5243 20.043 46.9453 19.278 49.2027C19.1202 49.6674 19.4404 49.7954 19.7966 49.8729C22.1078 50.3749 24.2066 50.227 25.7785 48.1196C26.6119 47.0029 27.5132 45.9442 28.0641 44.6424C28.3262 44.0235 28.3387 43.4561 28.1084 42.7971C27.8362 42.0159 27.2854 41.055 28.6584 40.6275C28.9393 40.5401 28.8817 40.3011 28.7504 40.0725C28.1742 39.0726 28.5068 38.0984 29.592 37.5711C31.7898 36.5029 35.2053 38.455 35.4174 40.8943C35.4397 41.1506 35.4559 41.4485 35.5922 41.6473C37.1177 43.869 36.8186 46.4603 37.0518 48.0322" fill="black"/>
<path fill-rule="evenodd" clip-rule="evenodd" d="M67.25 48.5986C65.995 48.4026 64.7731 48.4917 63.6187 49.0326C64.8659 49.1892 66.1085 49.3284 67.25 48.5986M60.3287 23.6293C59.8035 24.0836 59.0737 23.8587 58.7635 24.5094C59.1731 24.8226 59.5496 24.3868 59.9067 24.4643C60.4045 24.5728 61.4259 24.3972 60.6183 25.4642C60.5586 25.5433 60.4194 25.6224 60.5884 25.7057C61.9872 26.3965 60.9401 27.285 60.7201 28.0368C60.4915 28.8225 60.1399 29.5751 60.1212 30.4081C60.0955 31.5732 60.0839 32.7388 60.0997 33.9031C60.1187 35.3325 60.3407 35.516 61.7577 35.3814C64.2019 35.149 65.9171 33.3874 65.8579 30.9383C65.809 28.9302 66.2079 27.0087 66.6602 25.0922C66.8934 24.1048 67.513 23.3132 68.6103 23.1248C69.9022 22.9023 71.7764 23.6972 72.2577 24.8441C73.0679 26.7743 73.7977 28.7691 74.0848 30.8426C74.651 34.9361 74.5346 39.0193 73.3872 43.0321C72.9391 44.599 72.3277 46.1262 71.3813 47.4193C70.1366 49.1196 68.2673 49.8846 66.1822 50.1025C63.5479 50.3775 61.0097 50.2918 58.8074 48.4946C58.3248 48.1007 58.0204 47.5862 57.6919 47.1319C55.529 44.1384 52.9377 41.3264 52.4249 37.4686C51.8343 33.0258 52.5185 28.7645 54.8074 24.8507C55.6014 23.4926 56.6879 22.4728 58.4462 22.6712C59.164 22.7524 59.8325 22.9653 60.3287 23.6293" fill="black"/>
<path fill-rule="evenodd" clip-rule="evenodd" d="M51.127 84.2328C52.3087 84.8329 54.3201 84.7679 55.2773 84.1425C53.898 84.0658 52.5817 83.966 51.127 84.2328M64.0277 71.6775C64.1416 75.4931 63.0452 79.3224 60.4813 82.6882C59.4156 84.087 57.9651 84.963 56.2681 85.342C53.3529 85.9927 50.5165 85.7197 47.8022 84.4076C46.2233 83.6446 45.2151 82.3448 44.1842 80.9718C42.2685 78.4199 41.3225 75.4708 40.5268 72.4897C39.6164 69.0796 40.2596 65.7921 41.8315 62.6206C42.3716 61.5304 42.7415 60.4332 43.8623 59.7804C44.7156 59.2834 45.5295 59.4987 46.3488 59.7974C46.5451 59.869 46.8508 60.1026 46.8347 60.2261C46.606 61.974 48.0955 63.4341 47.6428 65.2168C47.4676 65.9073 47.3719 66.6193 47.2617 67.3247C46.9556 69.2842 48.0222 70.7302 50.0348 70.9489C51.9948 71.1618 53.7145 70.5637 54.9232 68.9595C55.9193 67.6382 56.6338 66.1458 57.0157 64.5168C57.3326 63.1648 58.3992 62.4375 59.7776 62.6438C62.0677 62.9863 62.6368 63.6002 62.8829 65.9868C62.8978 66.1351 62.8903 66.3202 62.9748 66.4205C64.1814 67.8648 63.8119 69.6318 64.0277 71.6775" fill="black"/>
<path fill-rule="evenodd" clip-rule="evenodd" d="M95.5633 31.1069C96.3494 31.3003 97.1339 31.6159 97.8588 31.0307C97.0838 30.9528 96.3097 30.7548 95.5633 31.1069M93.9802 14.0799C95.6685 14.6055 94.3302 15.5971 94.3364 16.3514C94.3393 16.7217 93.911 17.1404 94.3157 17.5327C94.71 17.9146 95.2087 17.886 95.6908 17.6926C97.843 16.8298 99.0069 15.0918 99.4613 12.9574C99.7948 11.3892 100.344 9.89067 100.678 8.32747C100.977 6.92499 102.408 6.18232 103.819 6.50167C105.505 6.88315 106.559 7.80309 106.793 9.57877C107.07 11.6895 107.666 13.7278 107.603 15.9198C107.456 21.0174 106.013 25.5955 102.849 29.6104C99.8966 33.3552 94.2382 33.5179 91.1997 29.8166C90.2143 28.6159 89.301 27.2382 89.1224 25.5653C89.093 25.2894 88.9083 25.0165 88.7526 24.7688C86.1563 20.65 86.4243 16.4015 88.3483 12.1779C89.6655 9.28759 91.9299 9.42718 93.771 10.804C94.0013 10.9763 94.3194 11.1817 94.2664 11.511C94.1985 11.9339 93.7756 11.7239 93.5171 11.8117C93.2715 11.8954 92.9314 11.9062 92.9737 12.2549C93.0172 12.6194 93.363 12.5109 93.6116 12.537C94.0635 12.5842 94.5381 12.614 94.7121 13.1467C94.8993 13.7208 94.2478 13.7224 93.9802 14.0799" fill="black"/>
<path fill-rule="evenodd" clip-rule="evenodd" d="M15.2577 90.267C15.0108 90.6319 15.1665 90.9558 15.5343 90.9923C16.1122 91.049 15.7539 90.6195 15.7733 90.3747C15.8011 90.0255 15.9643 90.2471 16.1378 90.2794C16.5193 90.3507 16.4883 89.9957 16.3321 89.8934C16.0728 89.7228 15.7141 89.5828 15.4188 89.6171C15.0709 89.6569 15.1653 89.9994 15.2577 90.267M13.8084 94.8373C12.9261 94.5644 11.92 95.6251 11.3807 94.2454C11.3783 94.8419 11.0283 95.7249 11.7216 95.6897C12.3549 95.6574 13.3076 95.7121 13.8084 94.8373M19.1242 91.6235C19.7783 92.0129 19.9083 91.2073 20.5992 91.2412C19.6635 91.9706 19.1271 92.7663 18.763 93.7662C18.5224 94.4268 17.5196 94.8294 16.8801 95.1426C14.614 96.2522 12.1723 96.9912 9.61458 97.0632C8.84044 97.0852 8.09322 96.5997 7.28015 96.5438C7.02831 96.5268 6.79139 96.3218 6.8092 96.0054C6.81334 95.9262 6.95293 95.7817 7.0105 95.7908C7.47813 95.8658 7.80618 95.8268 7.57547 95.2242C7.47234 94.9549 7.51003 94.5822 7.15133 94.4815C6.52133 94.3046 7.01589 95.1989 6.53086 95.1575C6.06778 95.5502 6.67251 93.6196 5.83293 94.8547C5.77991 94.8129 5.7008 94.781 5.67802 94.7263C5.17932 93.5239 4.00961 92.8545 3.35932 91.7283C2.73967 90.6555 1.94399 89.6851 1.47636 88.5062C0.0701466 84.9661 -0.37512 81.3219 0.329437 77.5759C0.69559 75.6275 1.9324 74.8339 3.71677 75.1806C4.32772 75.299 4.80032 75.6047 5.04346 76.1258C5.96257 78.0965 7.34932 79.9315 6.62902 82.3645C6.40618 83.1171 6.83364 83.9215 7.3692 84.5365C7.70015 84.9164 8.10441 85.1425 8.66358 84.8571C9.73305 84.3112 10.7959 83.7885 11.5522 82.7903C12.0923 82.0774 12.736 81.4429 13.3113 80.7553C14.1058 79.8055 14.3228 78.5998 14.4114 77.4583C14.5469 75.7178 15.6677 74.9018 17.2926 75.6354C17.9533 75.9336 18.5965 76.3788 18.8749 77.0304C19.6117 78.7526 20.4493 80.4082 20.8469 82.3057C21.2354 84.1592 21.346 85.9593 21.2516 87.8116C21.2106 88.6177 20.6932 89.3193 20.7649 90.163C20.7781 90.3192 20.4165 90.6419 20.2111 90.6572C19.5459 90.7069 19.5049 91.2988 19.1242 91.6235" fill="black"/>
<path fill-rule="evenodd" clip-rule="evenodd" d="M85.3421 57.6245C84.6579 58.3298 84.4558 58.3978 84.2255 57.9488C83.9136 57.3407 83.023 57.1336 82.5633 57.5743C82.2812 57.8444 82.2862 58.1965 82.5306 58.4483C82.9104 58.8401 85.1334 58.2064 85.3421 57.6245M87.1187 66.0704C86.6887 65.6649 85.9804 65.9495 85.7597 65.6716C84.9905 64.7027 84.4736 65.8952 83.8249 65.8203C83.711 65.807 83.2753 66.2278 83.4004 66.5207C83.5279 66.8185 84.0821 67.0492 84.2433 66.9113C85.0713 66.2013 86.1962 66.6213 87.1187 66.0704M84.715 61.4956C84.2578 61.4894 83.7251 61.5039 83.6514 62.1285C83.5644 62.8637 84.2416 62.5319 84.5767 62.6918C84.9926 62.891 85.362 62.498 85.7066 62.6177C86.0827 62.7477 86.311 62.638 86.4472 62.3609C86.6452 61.9582 86.2745 61.6679 86.1088 61.3659C85.9332 61.0474 85.6408 61.2856 85.4291 61.3978C85.2121 61.5134 85.0514 61.7955 84.715 61.4956M93.8532 49.8317C94.4409 50.081 94.9363 50.3875 95.027 50.9832C95.0974 51.4458 94.5577 51.2085 94.2972 51.5104C95.5423 51.5394 95.2954 52.6337 95.1637 53.0881C94.8158 54.2852 95.2569 55.4296 95.1169 56.5993C95.0245 57.3681 94.8477 58.1464 94.7839 58.9238C94.718 59.7303 94.1779 58.619 93.7587 58.6774C93.5388 58.9172 93.5549 59.169 93.8366 59.3119C94.1257 59.459 94.6389 59.4291 94.5983 59.8367C94.549 60.3317 94.4057 61.0909 94.083 61.2317C93.2136 61.6111 93.4149 62.4735 93.4684 62.8728C93.5835 63.7343 93.1904 63.6287 92.7327 63.4995C92.0708 63.3119 91.6736 63.5231 91.5407 64.1651C91.3713 64.9844 90.4505 64.8494 90.0392 65.4264C89.6358 65.9917 89.0041 66.3914 89.0592 67.2372C87.9222 67.101 88.4478 66.0994 87.9968 65.4914C87.8361 67.4775 86.3685 67.4431 85.0394 67.591C84.5978 67.6407 84.0975 67.4708 83.7098 67.6216C82.8963 67.9372 82.9555 67.5437 83.1614 66.8019C82.7078 67.6858 82.2891 67.9869 81.6508 67.2522C81.4192 66.9858 81.0361 67.0264 80.7081 66.9531C80.1042 66.8177 80.0304 66.6768 80.0466 65.8994C80.0511 65.6803 79.9124 65.7026 79.7778 65.6409C78.3923 65.0064 77.7904 63.8462 77.7801 62.3265C77.7751 61.6029 78.0708 60.4493 76.6427 60.5247C76.4459 60.5346 76.4066 60.3851 76.3432 60.2505C75.0319 57.46 75.4589 54.7768 76.9339 52.2096C77.6148 51.025 79.3574 50.4356 80.682 50.9011C81.1152 51.0536 81.5804 51.4661 81.7643 51.8787C81.9474 52.2883 81.4868 52.4519 81.0668 52.5058C80.74 52.5476 80.841 52.828 80.9106 53.043C81.0274 53.4029 81.2706 53.4961 81.6143 53.369C82.451 53.0587 82.6395 53.1975 82.5413 54.1891C82.4697 54.9156 83.5048 55.2047 84.0842 55.5982C84.4769 55.8649 84.6861 55.2933 84.8016 54.9649C84.8857 54.728 85.0153 54.5507 85.205 54.4542C87.0379 53.5152 87.2396 51.7175 87.5237 49.9928C87.6571 49.1839 87.6774 48.312 87.834 47.5469C87.9926 46.7711 88.2382 45.9581 88.4408 45.1582C88.7659 43.8763 89.8217 43.8353 90.8336 43.8924C91.4877 43.9293 92.135 44.1546 92.7737 44.3377C92.9282 44.382 93.1598 44.6057 93.1457 44.7217C93.0231 45.7303 94.2044 46.4506 93.7202 47.583C93.598 47.8688 93.9894 48.4387 94.2446 48.8094C94.73 49.5127 94.7482 49.5351 93.8532 49.8317" fill="black"/>
<path fill-rule="evenodd" clip-rule="evenodd" d="M44.7469 28.8494C43.8303 29.264 43.1849 29.7333 42.8002 30.5016C43.4289 30.0141 44.481 30.0141 44.7469 28.8494M41.1707 15.2251C42.0231 15.0664 42.4394 14.5595 42.9178 14.1701C43.8452 13.4146 44.6032 13.6557 44.8778 14.8714C44.9971 15.3986 45.0265 15.6923 45.7435 15.8385C46.4509 15.9831 46.6092 16.9937 46.9302 17.6511C47.9197 19.679 48.2999 21.8581 48.1715 24.0981C48.0005 27.0861 46.5139 29.3274 44.0693 30.9937C42.9489 31.7575 41.797 32.2073 40.3845 32.0412C39.7123 31.9621 39.325 31.533 38.8068 31.2754C37.0249 30.3906 35.1847 29.6244 33.5212 28.4982C31.7315 27.287 29.6484 22.7511 30.5212 20.3463C31.0803 18.805 32.0235 17.876 33.59 17.55C34.4909 17.3624 34.903 17.7364 34.9689 18.8386C35.4535 18.4981 35.6879 18.1025 35.8217 17.5728C36.1357 16.3322 36.5971 15.1456 37.1803 13.9982C37.872 12.6359 39.021 11.9707 40.4355 11.6373C40.9909 11.5064 41.5447 11.5756 41.8823 12.0192C42.2103 12.4499 42.1822 12.9706 41.8844 13.4916C41.6093 13.9725 41.4532 14.5214 41.1707 15.2251" fill="black"/>
<path fill-rule="evenodd" clip-rule="evenodd" d="M67.0717 5.34097C67.7717 3.75375 68.089 2.11517 69.3246 0.95789C69.5139 0.780612 69.6787 0.549487 69.9024 0.441381C70.4346 0.184162 71.1106 -0.233353 71.5712 0.163866C71.9705 0.508482 71.9046 1.23665 71.7017 1.82895C71.6035 2.11351 71.2398 2.5041 71.6569 2.7141C72.0098 2.89097 72.2116 2.4341 72.4369 2.19925C72.5669 2.06339 72.6639 1.89481 72.8001 1.76765C73.0545 1.53032 73.1775 1.01629 73.6563 1.206C74.0386 1.35677 74.3758 1.63221 74.4321 2.1015C74.4843 2.53682 74.4805 2.94191 75.1578 2.647C75.5024 2.49706 75.7439 2.9444 75.9307 3.19706C77.9946 5.98795 78.4221 8.87534 75.7393 11.7197C74.9188 12.5891 74.0759 13.4369 73.2446 14.296C72.7877 14.7682 72.2327 14.762 71.6785 14.5652C71.053 14.3432 71.7274 13.8358 71.4482 13.4295C70.812 14.4521 70.1998 14.3163 69.3859 13.5786C68.8814 13.1217 68.2766 12.5506 67.3273 12.9329C66.9777 13.0737 66.3125 12.6852 65.9045 12.3849C63.8596 10.8801 62.6286 8.88819 62.5801 6.29611C62.5607 5.26807 62.8982 4.35641 63.9379 3.89333C64.1371 3.80469 64.5393 3.7028 64.5546 3.73718C65.0314 4.80955 66.421 4.38126 67.0717 5.34097" fill="black"/>
</svg>
