<svg width="512" height="485" viewBox="0 0 512 485" fill="none" xmlns="http://www.w3.org/2000/svg">
<mask id="mask0_35_926" style="mask-type:alpha" maskUnits="userSpaceOnUse" x="0" y="0" width="512" height="485">
<rect width="512" height="485" rx="20" fill="#F5F6F8"/>
</mask>
<g mask="url(#mask0_35_926)">
<path d="M530.71 139.714C546.127 144.811 566.315 146.346 573.163 161.07C579.962 175.688 564.256 190.946 561.96 206.904C559.103 226.76 571.784 250.783 558.14 265.49C544.75 279.924 520.196 276.88 500.968 272.649C484.48 269.02 471.706 256.83 460.683 244.043C451.925 233.884 448.624 220.939 445.211 207.969C442.137 196.29 439.584 184.626 441.927 172.779C444.431 160.113 448.226 146.333 458.849 138.995C469.302 131.774 483.164 135.389 495.869 135.516C507.859 135.636 519.325 135.95 530.71 139.714Z" fill="#00E1F0"/>
<circle cx="11" cy="25" r="81" fill="#FFD08A"/>
<path d="M-14.4164 -42.1486C5.43992 -53.5704 29.8316 -45.3237 51.5638 -38.0823C70.6781 -31.7132 87.3188 -20.8356 98.9396 -4.37714C111.338 13.182 123.127 34.2336 117.216 54.8998C111.451 75.0554 89.7245 84.6241 70.8655 93.7795C54.6007 101.675 37.4096 104.024 19.404 102.384C-2.50673 100.388 -27.8723 101.047 -41.2367 83.5701C-55.1339 65.3959 -50.1427 40.051 -45.3693 17.6758C-40.4994 -5.15141 -34.6488 -30.5105 -14.4164 -42.1486Z" fill="#3734A9"/>
<path d="M4.58371 314.038C26.3835 297.91 59.0363 294.475 83.5884 306.051C106.563 316.882 102.976 352.978 122.255 369.515C138.546 383.489 169.382 372.472 181.595 390.118C193.775 407.717 186.407 432.343 179.819 452.687C173.26 472.938 160.516 489.902 144.673 504.122C127.314 519.702 108.222 533.896 85.1828 537.626C59.5648 541.773 32.1698 539.61 10.1192 525.903C-12.7132 511.709 -29.3054 488.238 -36.0879 462.24C-42.6225 437.192 -32.919 412.129 -26.0718 387.179C-18.8999 361.045 -17.2046 330.157 4.58371 314.038Z" fill="#FDBC64"/>
</g>
</svg>
